<?xml version="1.0" encoding="utf-8"?>
<!-- Generator: Adobe Illustrator 16.0.0, SVG Export Plug-In . SVG Version: 6.00 Build 0)  -->
<!DOCTYPE svg PUBLIC "-//W3C//DTD SVG 1.1//EN" "http://www.w3.org/Graphics/SVG/1.1/DTD/svg11.dtd">
<svg version="1.1" id="Layer_1" xmlns="http://www.w3.org/2000/svg" xmlns:xlink="http://www.w3.org/1999/xlink" x="0px" y="0px"
	 width="446.179px" height="90.46px" viewBox="0 0 446.179 90.46" enable-background="new 0 0 446.179 90.46" xml:space="preserve">
<path fill="#FFFFFF" d="M188.284,0.253c-2.301-0.331-4.778-0.354-7.413,0.023c-9.935,1.394-18.652,6.64-26.907,15.202
	c-5.885,6.128-10.645,12.656-18.543,24.669c-0.31,0.488-3.649,5.6-4.27,6.551c-12.77,19.296-20.158,26.156-28.059,25.468
	c-5.818-0.531-7.944-4.889-10.93-22.102c0-0.025-2.258-12.127-3.718-16.555c-2.215-6.659-5.376-11.837-10.136-15.531
	C67.692,9.726,55.629,12.27,43.88,21.982c-7.258,6.02-14.36,14.429-23.278,26.775c-2.589,3.583-11.261,15.886-10.574,14.935
	c-3.722,5.246-6.397,9.229-8.101,11.929c-2.963,4.713-2.5,8.785,1.327,12.08c3.807,3.295,9.582,2.853,12.878-0.951
	c2.57-2.988,4.782-6.793,8.809-12.502c-0.619,0.885,7.944-11.329,10.441-14.784c8.077-11.171,14.408-18.65,20.138-23.408
	c5.928-4.892,9.16-5.577,11.618-3.651c3.031,2.347,4.688,7.393,7.014,20.734c0,0.044,0,0.021,0,0.044
	c2.014,11.548,3.207,16.485,5.996,22.149c4.313,8.719,11.373,14.115,21.328,15.003c9.851,0.885,18.634-2.966,26.779-10.558
	c5.796-5.396,10.797-11.947,18.122-23.032c0.639-0.972,4.005-6.085,4.336-6.548c14.362-21.887,22.525-30.427,32.661-31.844
	c4.735-0.663,6.856,3.012,10.62,20.357c0.176,0.796,0.244,1.172,0.333,1.551c2.235,10.221,3.695,15.512,6.327,20.865
	c4.028,8.232,10.065,13.63,18.566,15.156c9.116,1.635,17.633-1.236,26.065-7.589c5.728-4.336,10.4-9.142,18.696-18.698
	c5.579-6.373,6.327-7.258,8.564-9.625c4.694-5.022,8.585-7.812,11.525-9.736c5.359-3.495,10.777-3.719,12.948-2.102
	c2.279,1.702,4.227,5.244,7.655,13.697c0.025,0.065,0.819,1.99,1.062,2.565c3.188,7.791,5.355,12.257,8.631,16.597
	c4.735,6.305,10.801,10.396,18.501,11.682c8.093,1.35,15.375-0.377,21.926-4.758c4.599-3.053,7.99-6.506,13.61-13.166
	c0.31-0.332,1.236-1.482,1.302-1.549c3.164-3.738,4.938-5.729,6.882-7.567c10.177-9.623,18.369-14.98,24.564-16.572
	c4.334-1.104,7.171-0.31,10,2.5c6.773,6.659,11.769,22.259,16.905,50.673c0.926,4.977,5.666,8.252,10.62,7.344
	c5.004-0.902,8.279-5.662,7.344-10.645c-5.839-32.369-11.504-49.984-21.992-60.361c-15.044-14.826-35.267-9.669-60.013,13.811
	c-2.584,2.456-4.665,4.799-8.246,9.048c-0.074,0.065-1.042,1.216-1.332,1.548c-8.585,10.137-12.415,12.703-18.543,11.662
	c-5.178-0.864-8.296-5.002-13.229-17.125c-0.223-0.556-1.021-2.48-1.062-2.547c-4.739-11.662-7.725-17.016-13.676-21.487
	c-8.474-6.327-19.163-6.015-32.062,0.466c-5.467,2.766-10.578,7.083-16.641,13.543c-2.457,2.632-3.275,3.542-9.032,10.156
	c-14.068,16.174-21.127,21.483-27.769,20.293c-4.222-0.756-6.813-6.108-10.264-21.953c-0.068-0.375-0.153-0.751-0.31-1.526
	c-2.61-11.946-4.14-17.214-7.301-22.724C200.744,5.497,195.254,1.316,188.284,0.253z"/>
</svg>
